/* XPM */
static char *_607f0f779504979f8f92bbd24bf1412eegn1EZ6aolDAgzK[] = {
/* columns rows colors chars-per-pixel */
"64 64 195 2 ",
"   c None",
".  c #462016",
"X  c #472118",
"o  c #4A231A",
"O  c #50271D",
"+  c #552C24",
"@  c #592E26",
"#  c #552F28",
"$  c #5A2C2B",
"%  c #532723",
"&  c #4F312B",
"*  c #563126",
"=  c #593127",
"-  c #553029",
";  c #5B332B",
":  c #5D2B31",
">  c #62362E",
",  c #61382F",
"<  c #622C36",
"1  c #652D3A",
"2  c #623630",
"3  c #653931",
"4  c #6A3D35",
"5  c #6A353C",
"6  c #6D3C3C",
"7  c #67303A",
"8  c #703F3A",
"9  c #6D4037",
"0  c #6E4138",
"q  c #73443C",
"w  c #78473F",
"e  c #77493F",
"r  c #78493F",
"t  c #6C3641",
"y  c #6E3942",
"u  c #713543",
"i  c #763D45",
"p  c #783E48",
"a  c #784345",
"s  c #774941",
"d  c #7A4B42",
"f  c #7D454A",
"g  c #7A4746",
"h  c #833F5A",
"j  c #85395C",
"k  c #B52E4B",
"l  c #B42D4A",
"z  c #B6314D",
"x  c #B9334F",
"c  c #BA3450",
"v  c #8C3C67",
"b  c #913A6E",
"n  c #993D78",
"m  c #824A4F",
"M  c #80444F",
"N  c #824751",
"B  c #864B54",
"V  c #884D57",
"C  c #83405B",
"Z  c #894E58",
"A  c #8E4463",
"S  c #8F4861",
"D  c #924B65",
"F  c #93466B",
"G  c #964A6C",
"H  c #964173",
"J  c #9A4376",
"K  c #9D4478",
"L  c #9E497A",
"P  c #9A4E71",
"I  c #A1447D",
"U  c #A24C7E",
"Y  c #B6487E",
"T  c #A1647D",
"R  c #7E884F",
"E  c #838C54",
"W  c #879158",
"Q  c #5E58B0",
"!  c #5C58AF",
"~  c #635CB5",
"^  c #675EB8",
"/  c #4D6DBB",
"(  c #4669B5",
")  c #516FBF",
"_  c #6660B8",
"`  c #6863BB",
"'  c #5373C1",
"]  c #A23E83",
"[  c #905A9F",
"{  c #A54285",
"}  c #AE4786",
"|  c #A64D82",
" . c #A94D85",
".. c #AC458D",
"X. c #AD4B8C",
"o. c #A64288",
"O. c #B04787",
"+. c #BB4B83",
"@. c #B0478D",
"#. c #B34B8D",
"$. c #AE518B",
"%. c #B1518E",
"&. c #AF4690",
"*. c #AF4D90",
"=. c #B04790",
"-. c #B34D94",
";. c #BA4C94",
":. c #B74F98",
">. c #BC4E9B",
",. c #A85598",
"<. c #B65196",
"1. c #B95296",
"2. c #B6549A",
"3. c #BC549B",
"4. c #BD5A9E",
"5. c #B55C94",
"6. c #AD6786",
"7. c #AA6886",
"8. c #AE6B89",
"9. c #B36E8D",
"0. c #B2708D",
"q. c #BB6399",
"w. c #B77591",
"e. c #B97493",
"r. c #BE7D99",
"t. c #BA7995",
"y. c #9D59A3",
"u. c #9B5EA8",
"i. c #945BA3",
"p. c #A158A5",
"a. c #A55CA9",
"s. c #AA5EAD",
"d. c #A453A6",
"f. c #B45AA2",
"g. c #BB5BA5",
"h. c #AE5EB0",
"j. c #9E62AC",
"k. c #AA62AE",
"l. c #A064AE",
"z. c #BC62AA",
"x. c #A467B1",
"c. c #AD63B2",
"v. c #A66BB4",
"b. c #AC6AB6",
"n. c #B26BB6",
"m. c #B26BB8",
"M. c #AC72BB",
"N. c #C54588",
"B. c #C44F8A",
"V. c #C14D87",
"C. c #C6548D",
"Z. c #C8528D",
"A. c #CB5591",
"S. c #CC5C94",
"D. c #C2539E",
"F. c #C35A9D",
"G. c #C9559D",
"H. c #CA4E9C",
"J. c #C2629E",
"K. c #C64FA1",
"L. c #CB4FA5",
"P. c #C554A1",
"I. c #CA53A5",
"U. c #C55AA3",
"Y. c #C95BA5",
"T. c #CD54A9",
"R. c #C55EAB",
"E. c #CD5DAA",
"W. c #D15EAC",
"Q. c #D15AA7",
"!. c #C661A6",
"~. c #CB61A6",
"^. c #C463AD",
"/. c #CD63AC",
"(. c #C769A5",
"). c #D261AE",
"_. c #D561AE",
"`. c #D262AE",
"'. c #D268AE",
"]. c #CD73AB",
"[. c #CD6AB2",
"{. c #C567B1",
"}. c #D364B1",
"|. c #D26AB2",
" X c #D56FB6",
".X c #D36BB2",
"XX c #D96FB6",
"oX c #D76EB8",
"OX c #C870B7",
"+X c #C970B8",
"@X c #D770B7",
"#X c #DA70B6",
"$X c #D771B8",
"%X c #DB70BA",
"&X c #D173AB",
/* pixels */
"                                                                                                                                ",
"                                                                                                                                ",
"                                                                                                                                ",
"                                                                                                                                ",
"                                                                                                                                ",
"                                                                                                                                ",
"                                                                                                                                ",
"                                                                                                                                ",
"                                                                                                                                ",
"                                                                                                                                ",
"                                                                                                                                ",
"                                                                                                                                ",
"                                                                                                                                ",
"                                                                                                                                ",
"                                                                                                                                ",
"                                                                                                                                ",
"                                            ] ] ] o.X.*.*.*.*.*.-.X.o.] ] o.X.*.*.*.                                            ",
"                                            @.@...=.:.1.<.<.<.<.:.-.......X.:.1.<.<.                                            ",
"                                *.*.*.*.*.:.D.P.P.Y.Y.Y.U.U.U.U.P.3.1.1.1.3.U.Y.U.D.<.*.*.X.o.]                                 ",
"                                <.<.<.<.1.2.a.s.R.W.W.W.)././.J.8.6.4.U.U.E./.).E.U.3.<.1.:.=...                                ",
"                        ] o...<.P.U.U.Y.Y.s.~ ~ a.Y.Y.E.|..X}.9.E E 9./.|.|././.E.Y.U.U.Y.Y.Y.P.<.*.*.*.                        ",
"                        ..=.:.3.U.E.E.).).c._ ^ s.g.u.j.{..X/.9.E E w.|. X@X|./././././.).)._.E.3.<.<.:.                        ",
"                *.*.*.<.P.Y.Y.Y.U.U.~././.^.n.n.[.v./ / v./.U.q.9.w.]. X$X$X$X X X|./././.)._.W.Y.U.U.3...o.X.-.                ",
"                :.<.<.3.E.).W.E.U.U././././..X#X#XM.' ) x.~.U.4.U./.|. X@X'.S.S.'..X/././.^.c.h.R.W.W.U.:.=.:.<.                ",
"            ] ..3.U.Y.E.).W.Y.U.Y./.|..X[./.'..X#X+Xb.v.{./.U.4.U.U./.|.|.A.c c A.[./././.k.^ ~ h._.).E.Y.U.U.D.<.X.            ",
"            ..:.U.W.).).E.E.U.U./.|. X'.C.C.G./.}.}._.).)./.U.U.g.U.U././.Z.k k B././.'.'.k.^ ^ c._.).).).).W.Y.3.<.            ",
"        -.<.3.U.E.).}.E.Y.U.E./.|. X|.C.x k N.T.T.T.Y.Y.Y.U.U.U.U.U.U.U.U.D.N.N.H.T.).'.'.^.c.c.^./././.).).).E.Y.D.<.-.        ",
"        X.:.U.W.).).}.E.U.4.9.w.]..X/.B.k l N.T.T.D.X.| | | | | | | | | | X.P.T.I.T.E./.W.W.W.W.E./././.E.E.W.).W.U.:.X.        ",
"        o.=.U.)._.).).E.U.7.E E w.}.T.H.+.+.D.Y.Y.#.h y y y y y y y y y y C %.Y.Y.U.U.U.T.T.T.I.T.T.W.).Y.Y.E.).).U.=.o.        ",
"        ..:.Y.).).).)./.U.7.R E 9.T.T.I.Y.3.$.|  .G y = = = = = = = = = ; y F  .| $.3.P.I.I.L.L.L.F.9.9.J.Y.E.).).Y.:...        ",
"    *.:.3.U.E.).).).)./.U.5.7.6.F.I.L.I.Y.$.h 5 y y 6 4 4 4 4 4 4 4 4 4 q q 6 y y C $.U.P.P.I.L.I.6.E E 9.W.}.).).E.U.3.<.-.    ",
"    -.<.U.W.).).).'.)./.U.P.P.Y.I.L.I.D.%.F 5 = = 3 q d w w w w q q q w d w > # = 6 F $.3.P.I.I.Y.9.E E e.}.}.).).).E.U.:.X.    ",
"    -.1.Y.).).).).}.)./.Y.U.P.P.I.I.Y.X.C 6 6 9 9 q d d d d w q q q w w d w 4 4 4 4 6 C $.P.I.I.E.(.e.e.(.}.}.)._.).E.P.X.o.    ",
"    { :.U.W.W.E.E.W.).^.a.p.f.P.I.I.Y.| t = 9 s w w s s d w 0 4 4 0 q q q q q w w 4 = t | P.I.T.W.).E.E.E.E.E.E.E.E.E.P.=.n     ",
". 1 b =.D.Y.Y.Y.I.T.).c.~ Q p.U.P.P.I.} y = 9 s w q 4 4 4 4 3 3 3 3 4 4 4 4 w w s 4 + 5 | U.P.U.)./.U.3.3.3.3.3.P.T.W.Y.<.J 1 . ",
"o < b ..>.D.P.K.K.I.W.c.^ ~ p.U.F.P.I.#.j y 6 4 4 3 , > 3 3 3 > > > 3 3 3 3 4 0 0 6 5 h %.U.U.U.E.U.3.,.[ [ ,.1.D.Y.W.E.1.H < o ",
"O 7 H -.:.3.D.K.K.Y.W.{.c.s.g.U.P.P.I.K.;.J y = @ = ; 3 3 3 3 3 > 3 3 3 3 > ; = = 6 F %.U././.~.U.3.1.[ ( ( [ 1.D.Y.W.E.1.J 7 O ",
"O 7 J :.<.1.D.P.P.I.T.)._.Y.V.+.D.U.I.L.I.#.h y y 5 2 ; ; > > ; ; ; ; ; ; 2 5 y y C $.E.).Q.A.B.1.<.1.i.( ( i.3.D.Y.T.Y.:.H 7 O ",
"o 1 J :.<.<.3.P.P.P.I.Y./.Z.z k C.R.P.3.3.<. .|  .F 5 = = = # + + + = = * 5 F  .| $.3.E.}.A.c l Y 2.3.f.u.u.f.D.P.P.Y.D.=.b < o ",
"X : v | X.:.3.3.P.P.P.Y.~.C.z x A.(.7.T 5.4.U.U.U.$.h t t t 5 5 u u u u u h $.U.U.3.3.U.E.Z.k l Y 4.U.U.P.P.P.P.P.P.D.-.I j $ X ",
"o % 5 h K ..:.3.D.P.P.Y.~.Y.C.A.'.t.E R 8.E./.U.4.<.| L L L L U } O.O.} } #.<.3.3.3.3.3.4.1.+.+.F.Y.U.D.D.D.P.P.P.P.1.| C 5 % o ",
"o % ; i H ..-.<.3.D.P.P.Y.~./.|.oXr.W W e.}./.!.4.3.3.3.4.3.2.3.P.I.I.I.I.P.1.<.3.3.2.3.4.U.!.z.k.s.g.D.P.P.K.P.P.3.:.L i ; % o ",
"+ # ; i K =.:.<.<.1.D.P.U.U.~.|. X].r.r.&X.X'.~.!.!.!.U.g.4.2.2.1.3.P.P.3.1.<.3.U.U.4.4./..X.Xb._ ~ d.I.I.P.P.P.3.1.:.L p ; # + ",
"# = > i F  .-.<.1.1.3.3.D.U.U./.|. X X[.m.n.{.'.'.|.|.Y.+.+.1.4.4.U.U.U.U.4.4.q.9.0.q.!..X@X#Xn._ ~ d.D.D.D.D.3.:.X.| F i > = # ",
"+ @ > 6 f D  .:.3.D.1.3.3.U.U.U././.!.s.~ ` m.XX@X@X$XS.z z C..X[.|..X.X|.|.|.w.E E e.|.|.'.'.^.c.s.2.:.1.1.1.:...I S f 6 > @ + ",
"+ @ ; 3 9 f G $.3.3.:.:.3.P.3.U.U.!.F.y.! ~ b..X.X.X XS.c c S.$X@XOXM.M.OXXXXXr.W E t.}./.~.~.~.!.U.3.:.:.:.<.X.I A a 4 3 ; @ + ",
"    = ; 3 q m G X.:...=.3.P.3.3.U.U.U.f.y.y.f.U.U.!./.~.C.C.~.'.'.v.' ' v..X#X].e.9.J.Y.Y.U.U.U.3.3.<.:.-.-.-.| S a 3 ; = =     ",
"    # = > 4 0 f G I K I -.>.<.1.3.P.3.3.3.3.3.3.4.4.U.~.~.~.~././.x./ / l./.'./.~.Y.P.P.P.D.3.1.:.-.:.-. .U U G f 4 ; + # #     ",
"    # = > 3 ; 3 a N B D { &.=.<.D.P.3.1.1.3.D.P.D.U.U.U.U.U.U.U.~.z.j.u.f.U.4.3.3.3.P.P.3.1.1.:.....=. .D V N f 8 3 = # - -     ",
"    # = > ; = ; 4 q r m F J L  .1.3.1.-.-.:.D.P.D.3.3.3.3.3.D.U.Y.Y.Y.D.D.3.1.1.1.1.D.3.:.-.-.X.I K U P B r q 4 3 ; = # - &     ",
"        @ = ; > 3 4 w g f M f S  .:.:.*...=.D.P.3.1.1.1.1.3.D.P.Y.Y.I.D.3.1.3.D.D.3.1.-...o.o.I S B V B g w 4 3 ; = # #         ",
"        + @ > 3 > 3 0 w w q q f G | | U K I -.>.:.-.-.:.:.1.3.D.>.>.>.>.:.<.3.P.P.1. .U K J J F m d d d w q 4 > = # # #         ",
"        + @ > 3 ; ; 3 4 w w q s N Z Z V B D { ......=.-.-.-.:.:.&.......=.-.:.:.:.X.D V B B B N g d d w 9 4 3 > = # # #         ",
"        + @ ; > = - ; 3 0 q q q r d d d d m F J J K U U U U U U K J J K U U U U | P B d d d d d w q q 4 3 > 3 > = # # #         ",
"            = = - # - ; 3 4 4 4 q w r d d g N B B B Z Z Z Z Z V B B B B Z Z Z Z Z B g r d r w q 4 3 > ; = ; 3 > @ +             ",
"            # # # # # = > 3 > 3 3 4 q q q w d d d d d d d d d d d d d d d d d d d d d w w q 4 4 3 ; = - # = ; ; @ +             ",
"                % # # = > 2 ; = = ; 3 4 4 9 w d w q q w r d d d d r w q w w r d d d d w 4 3 ; ; = = > ; = # = =                 ",
"                + + # = > ; = # - ; > 3 > 3 4 q q q 0 0 q w w w w w q 4 4 4 0 q q q q 4 3 ; # # # = ; > = # # #                 ",
"                        @ @ # = ; 2 3 > ; = ; 3 0 q 4 4 4 4 q q q q 4 3 ; ; ; > 3 3 > ; = = # + + # = =                         ",
"                        + + # = > > > ; = # + ; 4 q 4 3 > 3 4 4 0 4 4 > = # - ; > > = + # # # + + % # #                         ",
"                                = = = = # # # = 3 4 4 > ; = ; ; 3 4 4 > = - ; 3 3 > @ % # # # #                                 ",
"                                # # # # + + # = ; > > ; = # # @ ; > > ; = = ; > > ; @ + # # # #                                 ",
"                                            + # = = = = - # # % @ @ = = - - = = @ @                                             ",
"                                            + + # # # # # # + + + + # # # # # # + +                                             "
};
