/* XPM */
static char *b4997c2ab4074e2f9c6c0938984d124foCfTuYgbAaRVezEz[] = {
/* columns rows colors chars-per-pixel */
"64 64 35 1 ",
"  c #C68556",
". c #C78556",
"X c #C78656",
"o c #C78657",
"O c #C28254",
"+ c #BA7D51",
"@ c #C28255",
"# c #BB7D51",
"$ c #B77A50",
"% c #C38355",
"& c #A36B47",
"* c #A46C48",
"= c #976343",
"- c #976342",
"; c #BC7E52",
": c #C88757",
"> c #A06946",
", c #AF754D",
"< c #BB7D52",
"1 c #B87B50",
"2 c #AF744D",
"3 c #9F6946",
"4 c #A36C47",
"5 c #A26B47",
"6 c #C48355",
"7 c #AB724B",
"8 c #936041",
"9 c #A46D48",
"0 c #946141",
"q c #8C5B3E",
"w c #986443",
"e c #996543",
"r c #996443",
"t c #C88657",
"y c white",
/* pixels */
"                                                                ",
"            ..                                        .XX.      ",
"            XX                                        XooX      ",
"           O++O                                      @#$$#%X    ",
"         .X+&&+X.                                  .X#*=-*;:X   ",
"         .X+&&+X.                                  .X#*==>,<%   ",
"           O++O                                      @#$1234#X. ",
"            XX                                        X::<45+X. ",
"            ..                                        .Xo%#+O   ",
"                                                          XX    ",
"                                                          ..    ",
"                                                                ",
"                                                                ",
"                                                                ",
"                                                                ",
"                                                                ",
"                                                                ",
"                                                                ",
"                                                                ",
"                                                                ",
"                                                                ",
"                                                                ",
"                                                                ",
"                                                                ",
"                                                                ",
"                                          .XX.                  ",
"                                          XooX                  ",
"                                         @#$$#%X                ",
"                                       .X#*=-*;:X               ",
"                                       .X#*==>,<%               ",
"                                         @#$1234#X.             ",
"                                          X::<45+X.             ",
"                                          .Xo%#+O               ",
"                                              XX                ",
"                                              ..                ",
"            ..                                                  ",
"            XX                                                  ",
"          X%<<%X                                                ",
"         X:;**;:X                                               ",
"        X6;7887;%                                               ",
"       X:;90qq0*<X.                                             ",
"       %<,>werw*#X.                                             ",
"     .X#432111$#@                                               ",
"     .X+54<:tooX                                                ",
"       O+#%oXXX.                                                ",
"        XX                                                      ",
"        ..                                                      ",
"                                                                ",
"                                                                ",
"                                                                ",
"                                                                ",
"                                                                ",
"                                                                ",
"                                                        ..      ",
"                                                        XX      ",
"                                                       O++O     ",
"                                                     .X+&&+X.   ",
"                                                     .X+&&+X.   ",
"                                                       O++O     ",
"                                                        XX      ",
"                                                        ..      ",
"                                                                ",
"                                                                ",
"                                                                "
};
