/* XPM */
static char *result[] = {
/* columns rows colors chars-per-pixel */
"64 64 249 2 ",
"   c black",
".  c gray1",
"X  c #040404",
"o  c gray2",
"O  c #060606",
"+  c #070807",
"@  c #0B060A",
"#  c gray3",
"$  c #090909",
"%  c #090A09",
"&  c gray4",
"*  c #0B0B0B",
"=  c #0B0C0C",
"-  c #0C0C0C",
";  c gray5",
":  c #0E0E0E",
">  c gray6",
",  c #101010",
"<  c #111111",
"1  c gray7",
"2  c #131313",
"3  c gray8",
"4  c gray9",
"5  c #1B161A",
"6  c #181818",
"7  c #191919",
"8  c #191A19",
"9  c #1B1B1B",
"0  c #1C1D1C",
"q  c #1D1D1D",
"w  c #1D1E1D",
"e  c gray12",
"r  c #271723",
"t  c #2B1C27",
"y  c #1F2120",
"u  c #202020",
"i  c gray13",
"p  c #222222",
"a  c #232323",
"s  c gray14",
"d  c #252525",
"f  c gray15",
"g  c #272727",
"h  c #2B262A",
"j  c #282828",
"k  c gray16",
"l  c #2A2A2A",
"z  c gray17",
"x  c #2A2C2B",
"c  c #2C2C2C",
"v  c gray18",
"b  c #2F2F2F",
"n  c #31212D",
"m  c #372231",
"M  c #372733",
"N  c gray19",
"B  c #313131",
"V  c #323232",
"C  c gray20",
"Z  c #343434",
"A  c #353535",
"S  c gray21",
"D  c #373737",
"F  c #373938",
"G  c #383938",
"H  c #393939",
"J  c #3A3A3A",
"K  c gray23",
"L  c #3C3C3C",
"P  c gray24",
"I  c #3E3E3E",
"U  c #3F3F3F",
"Y  c gray25",
"T  c #474246",
"R  c #444544",
"E  c gray27",
"W  c gray28",
"Q  c gray29",
"!  c #4B4B4B",
"~  c #4C4C4C",
"^  c gray30",
"/  c #594955",
"(  c #505050",
")  c gray32",
"_  c #525352",
"`  c #535353",
"'  c #535453",
"]  c gray33",
"[  c #555555",
"{  c #565656",
"}  c #565756",
"|  c gray34",
" . c #585858",
".. c gray35",
"X. c #585A59",
"o. c #5B5B5B",
"O. c gray36",
"+. c #5D5D5D",
"@. c #606060",
"#. c gray38",
"$. c #646464",
"%. c #656565",
"&. c #676767",
"*. c #686868",
"=. c gray42",
"-. c #6D6D6D",
";. c gray43",
":. c #70616C",
">. c gray44",
",. c #717171",
"<. c #747474",
"1. c gray46",
"2. c #777777",
"3. c gray47",
"4. c #797979",
"5. c gray48",
"6. c #7A7B7B",
"7. c #7B7B7B",
"8. c #7B7D7C",
"9. c #7C7C7C",
"0. c gray49",
"q. c #8A5A7E",
"w. c #887884",
"e. c #8A7A86",
"r. c #9C6B90",
"t. c #AD7DA1",
"y. c #BD7CAD",
"u. c #808080",
"i. c #818181",
"p. c #818382",
"a. c gray51",
"s. c #838383",
"d. c gray52",
"f. c #868686",
"g. c #868786",
"h. c gray53",
"j. c #888888",
"k. c #8B8B8B",
"l. c gray55",
"z. c #8D8D8D",
"x. c #8E8E8E",
"c. c gray56",
"v. c #90808C",
"b. c #92828E",
"n. c #8F908F",
"m. c gray57",
"M. c #919291",
"N. c #929292",
"B. c #939393",
"V. c gray58",
"C. c #959595",
"Z. c #979797",
"A. c #989898",
"S. c gray60",
"D. c #9A9A9A",
"F. c #9B9B9B",
"G. c gray61",
"H. c #9D9D9D",
"J. c gray62",
"K. c #9F9F9F",
"L. c #A0A0A0",
"P. c gray63",
"I. c #A1A2A1",
"U. c #A2A2A2",
"Y. c gray64",
"T. c #A5A0A4",
"R. c #A5A5A5",
"E. c gray65",
"W. c #A7A7A7",
"Q. c gray66",
"!. c #A9A9A9",
"~. c #AAAAAA",
"^. c gray67",
"/. c #ACACAC",
"(. c gray68",
"). c #AEAEAE",
"_. c #AFAFAF",
"`. c #B1A1AD",
"'. c gray69",
"]. c #B1B1B1",
"[. c #B2B2B2",
"{. c #B4B4B4",
"}. c gray71",
"|. c #B6B6B6",
" X c #B7B7B7",
".X c gray72",
"XX c #B9B9B9",
"oX c gray73",
"OX c #BBBBBB",
"+X c #BCBCBC",
"@X c gray74",
"#X c #BDBEBD",
"$X c gray",
"%X c gray75",
"&X c #CA99BE",
"*X c #BFC0BF",
"=X c #CE9DC2",
"-X c #D1A1C5",
";X c #C0C0C0",
":X c #C1C1C1",
">X c #C1C2C1",
",X c gray76",
"<X c #C3C3C3",
"1X c gray77",
"2X c #C5C5C5",
"3X c #C6C6C6",
"4X c gray78",
"5X c #C8C8C8",
"6X c gray79",
"7X c #CACACA",
"8X c #CBCBCB",
"9X c gray80",
"0X c #CDCDCD",
"qX c gray81",
"wX c #D0D0D0",
"eX c gray82",
"rX c #D2D2D2",
"tX c LightGray",
"yX c gray83",
"uX c #D5D5D5",
"iX c gray84",
"pX c #D7D7D7",
"aX c #D9D4D8",
"sX c #D8D8D8",
"dX c gray85",
"fX c #DADADA",
"gX c gray86",
"hX c gainsboro",
"jX c gray87",
"kX c #DFDFDF",
"lX c #FFC4F4",
"zX c #E1E1E1",
"xX c #E2E2E2",
"cX c #E4E4E4",
"vX c #E7E7E7",
"bX c #EAEAEA",
"nX c gray92",
"mX c #EEEEEE",
"MX c #EFEFEF",
"NX c #F4E6F1",
"BX c #FFEDFD",
"VX c #F1F1F1",
"CX c gray95",
"ZX c #F3F3F3",
"AX c #F6F6F6",
"SX c #FBFBFB",
"DX c #FEFEFE",
"FX c white",
"GX c None",
/* pixels */
"GXGXGXGXGXGXGXGXGXGXGXGXGXGXGXGXGXGXGXGXGXGXGXGXGXGXGXGXGXGXGXGXGXGXGXGXGXGXGXGXGXGXGXGXGXGXGXGXGXGXGXGXGXGXGXGXGXGXGXGXGXGXGXGX",
"GXGXGXGXGXGXGXGXGXGXGXGXGXGXGXGXGXGXGXGXGXGXGXGXGXGXGXGXGXGXGXGXGXGXGXGXGXGXGXGXGXGXGXGXGXGXGXGXGXGXGXGXGXGXGXGXGXGXGXGXGXGXGXGX",
"GXGXGXGXGXGXGXGXGXGXGXGXGXGXGXGXGXGXGXGXGXGXGXGXGXGXGXGXGXGXGXGXGXGXGXGXGXGXGXGXGXGXGXGXGXGXGXGXGXGXGXGXGXGXGXGXGXGXGXGXGXGXGXGX",
"GXGXGXGXGXGXGXGXGXGXGXGXGXGXGXGXGXGXGXGXGXGXGXGXGXGXGXGXGXGXGXGXGXGXGXGXGXGXGXGXGXGXGXGXGXGXGXGXGXGXGXGXGXGXGXGXGXGXGXGXGXGXGXGX",
"GXGXGXGXGXGXGXGXGXGXGXGXGXGXGXGXGXGXGXGXGXGXGXGXGXGXGXGXGXGXGXGXGXGXGXGXGXGXGXGXGXGXGXGXGXGXGXGXGXGXGXGXGXGXGXGXGXGXGXGXGXGXGXGX",
"GXGXGXGXGXGXGXGXGXGXGXGXGXGXGXGXGXGXGXGXGXGXGXGXGXGXGXGXGXGXGXGXGXGXGXGXGXGXGXGXGXGXGXGXGXGXGXGXGXGXGXGXGXGXGXGXGXGXGXGXGXGXGXGX",
"GXGXGXGXGXGXGXGXGXGXGXGXGXGXGXGXGXGXGXGXGXGXGXGXGXGXGXGXGXGXGXGXGXGXGXGXGXGXGXGXGXGXGXGXGXGXGXGXGXGXGXGXGXGXGXGXGXGXGXGXGXGXGXGX",
"GXGXGXGXGXGXGXGXGXGXGXGXGXGXGXGXGXGXGXGXGXGXGXGXGXGXGXGXGXGXGXGXGXGXGXGXGXGXGXGXGXGXGXGXGXGXGXGXGXGXGXGXGXGXGXGXGXGXGXGXGXGXGXGX",
"GXGXGXGXGXGXGXGXGXGXGXGXGXGXGXGXGXGXGXGXGXGXGXGXGXGXGXGXGXGXGXGXGXGXGXGXGXGXGXGXGXGXGXGXGXGXGXGXGXGXGXGXGXGXGXGXGXGXGXGXGXGXGXGX",
"GXGXGXGXGXGXGXGXGXGXGXGXGXGXGXGXGXGXGXGXGXGXGXGXGXGXGXGXGXGXGXGXGXGXGXGXGXGXGXGXGXGXGXGXGXGXGXGXGXGXGXGXGXGXGXGXGXGXGXGXGXGXGXGX",
"GXGXGXGXGXGXGXGXGXGXGXGXGXGXGXGXGXGXGXGXGXGXGXGXGXGXGXGXGXGXGXGXGXGXGXGXGXGXGXGXGXGXGXGXGXGXGXGXGXGXGXGXGXGXGXGXGXGXGXGXGXGXGXGX",
"GXGXGXGXGXGXGXGXGXGXGXGXGXGXGXGXGXGXGXGXGXGXGXGXGXGXGXGXGXGXGXGXGXGXGXGXGXGXGXGXGXGXGXGXGXGXGXGXGXGXGXGXGXGXGXGXGXGXGXGXGXGXGXGX",
"GXGXGXGXGXGXGXGXGXGXGXGXGXGXGXGXGXGXGXGXGXGXGXGXGXGXGXGXGXGXGXGXGXGXGXGXGXGXGXGXGXGXGXGXGXGXGXGXGXGXGXGXGXGXGXGXGXGXGXGXGXGXGXGX",
"GXGXGXGXGXGXGXGXGXGXGXGXGXGXGXGXGXGXGXGXGXGXGXGXGXGXGXGXGXGXGXGXGXGXGXGXGXGXGXGXGXGXGXGXGXGXGXGXGXGXGXGXGXGXGXGXGXGXGXGXGXGXGXGX",
"GXGXGXGXGXGXGXGXGXGXGXGXGXGXGXGXGXGXGXGXGXGX        GXGXGXGXGXGXGXGXGXGXGXGX        GXGXGXGXGXGXGXGXGXGXGXGXGXGXGXGXGXGXGXGXGXGX",
"GXGXGXGXGXGXGXGXGXGXGXGXGXGXGXGXGXGXGXGXGXGXy 8 #   GXGXGXGXGXGXGXGXGXGXGXGX  # 8 y GXGXGXGXGXGXGXGXGXGXGXGXGXGXGXGXGXGXGXGXGXGX",
"GXGXGXGXGXGXGXGXGXGXGXGXGXGXGXGXGXGXGXGX  i X.' 9   GXGX                GXGX  9 ' X.i   GXGXGXGXGXGXGXGXGXGXGXGXGXGXGXGXGXGXGXGX",
"GXGXGXGXGXGXGXGXGXGXGXGXGXGXGXGXGXGXGXGX  h w.b.T 0 GXGX> 7 j B B j 7 > GXGX0 T b.w.h   GXGXGXGXGXGXGXGXGXGXGXGXGXGXGXGXGXGXGXGX",
"GXGXGXGXGXGXGXGXGXGXGXGXGXGXGXGXGXGXGXGX  M t.=Xv.} w - c ` a.G.G.a.` c - w } v.=Xt.M   GXGXGXGXGXGXGXGXGXGXGXGXGXGXGXGXGXGXGXGX",
"GXGXGXGXGXGXGXGXGXGXGXGXGXGXGXGXGXGXGXGX  n r.&X`.p.R D +.k.OXyXyXOXk.+.D R p.`.&Xr.n   GXGXGXGXGXGXGXGXGXGXGXGXGXGXGXGXGXGXGXGX",
"GXGXGXGXGXGXGXGXGXGXGXGXGXGXGXGXGXGXGXGX  5 / e.T.E.n.x.R.XX5XwXwX5XXXR.x.n.E.T.e./ 5   GXGXGXGXGXGXGXGXGXGXGXGXGXGXGXGXGXGXGXGX",
"GXGXGXGXGXGXGXGXGXGXGXGXGXGXGXGXGXGXGXGX  8 _ 8.M.U._.OX1X7X8X9X9X8X7X1XOX_.U.M.8._ 8   GXGXGXGXGXGXGXGXGXGXGXGXGXGXGXGXGXGXGXGX",
"GXGXGXGXGXGXGXGXGXGXGXGXGXGXGXGXGXGX      z g.I.6.4.L. XoX%X5X0X0X5X%XoX XL.4.6.I.g.z       GXGXGXGXGXGXGXGXGXGXGXGXGXGXGXGXGXGX",
"GXGXGXGXGXGXGXGXGXGXGXGXGXGXGXGXGXGXv B N ) B.L.3.0.].<X]._.$X4X4X$X_.].,X'.0.3.L.B.) N B v GXGXGXGXGXGXGXGXGXGXGXGXGXGXGXGXGXGX",
"GXGXGXGXGXGXGXGXGXGXGXGXGXGXGXGX  c 9.L.L.N.5.2.l.'.kXjX).J.'.OXOX'.J.).hXjX'.l.2.5.N.L.L.9.c   GXGXGXGXGXGXGXGXGXGXGXGXGXGXGXGX",
"GXGXGXGXGXGXGXGXGXGXGXGXGXGXGXGX  c 7.R.'.K.2.0.[.9X4X$X}.).~.!.!.~.).oXqXpXeX].0.2.K.'.R.7.c   GXGXGXGXGXGXGXGXGXGXGXGXGXGXGXGX",
"GXGXGXGXGXGXGXGXGXGXGXGXGXGXGXGXGXGXl I @.7.z.[.xX4X&.%.;XfX).C.C.(.dXeXA.F.sXzX].z.7.@.I l GXGXGXGXGXGXGXGXGXGXGXGXGXGXGXGXGXGX",
"GXGXGXGXGXGXGXGXGXGXGXGXGXGXGXGXGXGXk K ..a.[.8X7Xm.l l c.:X X'.'.|.%XJ. ...L.5X7X[.a...K k GXGXGXGXGXGXGXGXGXGXGXGXGXGXGXGXGXGX",
"GXGXGXGXGXGXGXGXGXGXGXGXGXGXGXGX  z 4.F.H.{.kX3X=.l * $ f %.;XVXVX;X$.l 4 7 b =.3XkX{.H.F.4.z   GXGXGXGXGXGXGXGXGXGXGXGXGXGXGXGX",
"GXGXGXGXGXGXGXGXGXGXGXGXGXGXGXGX  B H.%XZ.Q.vX1XU     - k O.P.2X2XP.O.k -     U 1XvXQ.Z.%XH.B   GXGXGXGXGXGXGXGXGXGXGXGXGXGXGXGX",
"GXGXGXGXGXGXGXGXGXGXGXGXGXGXGXGXGXGXGXGXC #.qX3XY     B Z.E.+.C C +.E.Z.B     Y 3XqX#.C GXGXGXGXGXGXGXGXGXGXGXGXGXGXGXGXGXGXGXGX",
"GXGXGXGXGXGXGXGXGXGXGXGXGXGXGXGXGXGXGXGX  b N.V.N     B Z.E.O.V V O.E.Z.B     N V.N.b   GXGXGXGXGXGXGXGXGXGXGXGXGXGXGXGXGXGXGXGX",
"GXGXGXGXGXGXGXGXGXGXGXGXGXGXGXGXGXGXGXGX  : z c :     - k O.K.,X,XK.O.k -     : c z :   GXGXGXGXGXGXGXGXGXGXGXGXGXGXGXGXGXGXGXGX",
"GXGXGXGXGXGXGXGXGXGXGXGXGXGXGXGXGXGXGXGX, 7 f i &     * j =.wXFXFXwX=.j *     & i f 7 , GXGXGXGXGXGXGXGXGXGXGXGXGXGXGXGXGXGXGXGX",
"GXGXGXGXGXGXGXGXGXGXGXGXGXGXGXGXGXGX  , v [ d.<.d     v B.iXZXFXFXZXiXB.v     d <.d.[ v ,   GXGXGXGXGXGXGXGXGXGXGXGXGXGXGXGXGXGX",
"GXGXGXGXGXGXGXGXGXGXGXGXGXGXGXGXGXGXl I @.x.:X_.o.e o v C.aXNXBXBXNXaXC.v o e o._.:Xx.@.I l GXGXGXGXGXGXGXGXGXGXGXGXGXGXGXGXGXGX",
"GXGXGXGXGXGXGXGXGXGXGXGXGXGXGXGX  z 3.L.^.oX9X6X(.<.a % x :.-XlXlX-X:.x % a <.(.6X9XoX^.L.3.z   GXGXGXGXGXGXGXGXGXGXGXGXGXGXGXGX",
"GXGXGXGXGXGXGXGXGXGXGXGXGXGXGXGX  B G.iXuX<XW.R.+XS.P +   t q.y.y.q.t   + I S.+XR.W.<XuXiXG.B   GXGXGXGXGXGXGXGXGXGXGXGXGXGXGXGX",
"GXGXGXGXGXGXGXGXGXGXGXGXGXGXGXGX  N D.pXsX~.[ Q h.x. .z = @ r m m r @ = z ..c.j.Q [ ~.sXpXD.N   GXGXGXGXGXGXGXGXGXGXGXGXGXGXGXGX",
"GXGXGXGXGXGXGXGXGXGXGXGXGXGXGXGX  B F.5X/.>.u a 3.S.i.%.Q K G F F G K Q %.0.x.-.u u ,./.5XF.B   GXGXGXGXGXGXGXGXGXGXGXGXGXGXGXGX",
"GXGXGXGXGXGXGXGXGXGXGXGXGXGXGXGX  C J.(...q X c c.$X}.{.$X>X*X#X#X*X>X$X}.~.G.-.i o q ..(.J.C   GXGXGXGXGXGXGXGXGXGXGXGXGXGXGXGX",
"GXGXGXGXGXGXGXGXGXGXGXGXGXGXGXGX  z f.z.H o   B G.rXeXdXmXSXDXFXFXDXSXMXfX2X_.4.f   O H z.f.z   GXGXGXGXGXGXGXGXGXGXGXGXGXGXGXGX",
"GXGXGXGXGXGXGXGXGXGXGXGXGXGXGXGX  9 [ *.^ z $ N F.tXeXeXsXcXAXFXFXAXcXsXeX0X4Xc.c $ z ^ *.[ 9   GXGXGXGXGXGXGXGXGXGXGXGXGXGXGXGX",
"GXGXGXGXGXGXGXGXGXGXGXGXGXGXGXGX  2 I ( W L Z [ G.;X%X;X3XpXCXFXFXCXpX5X3X4X6XY.| C K W ( I 2   GXGXGXGXGXGXGXGXGXGXGXGXGXGXGXGX",
"GXGXGXGXGXGXGXGXGXGXGXGXGXGXGXGX  3 Y E p A 0.U.U.K.K.!.%XsXZXFXFXCXsX2X+X.XXX}.!.9.Z p E Y 3   GXGXGXGXGXGXGXGXGXGXGXGXGXGXGXGX",
"GXGXGXGXGXGXGXGXGXGXGXGXGXGXGXGX  2 C v - s 1.P.Y.U.U./.:XiXnXAXAXbXiX4X$XOXOX|.W.1.a - v C 2   GXGXGXGXGXGXGXGXGXGXGXGXGXGXGXGX",
"GXGXGXGXGXGXGXGXGXGXGXGXGXGXGXGXGXGX1 : . # u ] K.2X1X1X6XqXpXgXgXpXqX8X7X9X0XR.[ u # . : 1 GXGXGXGXGXGXGXGXGXGXGXGXGXGXGXGXGXGX",
"GXGXGXGXGXGXGXGXGXGXGXGXGXGXGXGXGXGX      $ i Q i.G.S.E.,X5X X(.(. X5X,XR.S.F.i.Q i $       GXGXGXGXGXGXGXGXGXGXGXGXGXGXGXGXGXGX",
"GXGXGXGXGXGXGXGXGXGXGXGXGXGXGXGXGXGXGXGX  f 2.f.~ l j { ^.@Xk.;.;.k.@X^.[ j k ~ d.2.f   GXGXGXGXGXGXGXGXGXGXGXGXGXGXGXGXGXGXGXGX",
"GXGXGXGXGXGXGXGXGXGXGXGXGXGXGXGXGXGXGXGX  g 5.u.Z 2 a ! s.f.[ H H [ f.s.! a 2 Z u.5.g   GXGXGXGXGXGXGXGXGXGXGXGXGXGXGXGXGXGXGXGX",
"GXGXGXGXGXGXGXGXGXGXGXGXGXGXGXGXGXGXGXGX  - f S J | j.d.^ g 6 < < 6 g ^ d.j.| J S f -   GXGXGXGXGXGXGXGXGXGXGXGXGXGXGXGXGXGXGXGX",
"GXGXGXGXGXGXGXGXGXGXGXGXGXGXGXGXGXGXGXGX      : v o.z.7.g             g 7.z.o.v :       GXGXGXGXGXGXGXGXGXGXGXGXGXGXGXGXGXGXGXGX",
"GXGXGXGXGXGXGXGXGXGXGXGXGXGXGXGXGXGXGXGXGXGX  X > q v j ;             ; j v q > X   GXGXGXGXGXGXGXGXGXGXGXGXGXGXGXGXGXGXGXGXGXGX",
"GXGXGXGXGXGXGXGXGXGXGXGXGXGXGXGXGXGXGXGXGXGX                                        GXGXGXGXGXGXGXGXGXGXGXGXGXGXGXGXGXGXGXGXGXGX",
"GXGXGXGXGXGXGXGXGXGXGXGXGXGXGXGXGXGXGXGXGXGXGXGXGXGX                        GXGXGXGXGXGXGXGXGXGXGXGXGXGXGXGXGXGXGXGXGXGXGXGXGXGX",
"GXGXGXGXGXGXGXGXGXGXGXGXGXGXGXGXGXGXGXGXGXGXGXGXGXGX                        GXGXGXGXGXGXGXGXGXGXGXGXGXGXGXGXGXGXGXGXGXGXGXGXGXGX",
"GXGXGXGXGXGXGXGXGXGXGXGXGXGXGXGXGXGXGXGXGXGXGXGXGXGXGXGXGXGXGXGXGXGXGXGXGXGXGXGXGXGXGXGXGXGXGXGXGXGXGXGXGXGXGXGXGXGXGXGXGXGXGXGX",
"GXGXGXGXGXGXGXGXGXGXGXGXGXGXGXGXGXGXGXGXGXGXGXGXGXGXGXGXGXGXGXGXGXGXGXGXGXGXGXGXGXGXGXGXGXGXGXGXGXGXGXGXGXGXGXGXGXGXGXGXGXGXGXGX",
"GXGXGXGXGXGXGXGXGXGXGXGXGXGXGXGXGXGXGXGXGXGXGXGXGXGXGXGXGXGXGXGXGXGXGXGXGXGXGXGXGXGXGXGXGXGXGXGXGXGXGXGXGXGXGXGXGXGXGXGXGXGXGXGX",
"GXGXGXGXGXGXGXGXGXGXGXGXGXGXGXGXGXGXGXGXGXGXGXGXGXGXGXGXGXGXGXGXGXGXGXGXGXGXGXGXGXGXGXGXGXGXGXGXGXGXGXGXGXGXGXGXGXGXGXGXGXGXGXGX",
"GXGXGXGXGXGXGXGXGXGXGXGXGXGXGXGXGXGXGXGXGXGXGXGXGXGXGXGXGXGXGXGXGXGXGXGXGXGXGXGXGXGXGXGXGXGXGXGXGXGXGXGXGXGXGXGXGXGXGXGXGXGXGXGX",
"GXGXGXGXGXGXGXGXGXGXGXGXGXGXGXGXGXGXGXGXGXGXGXGXGXGXGXGXGXGXGXGXGXGXGXGXGXGXGXGXGXGXGXGXGXGXGXGXGXGXGXGXGXGXGXGXGXGXGXGXGXGXGXGX",
"GXGXGXGXGXGXGXGXGXGXGXGXGXGXGXGXGXGXGXGXGXGXGXGXGXGXGXGXGXGXGXGXGXGXGXGXGXGXGXGXGXGXGXGXGXGXGXGXGXGXGXGXGXGXGXGXGXGXGXGXGXGXGXGX",
"GXGXGXGXGXGXGXGXGXGXGXGXGXGXGXGXGXGXGXGXGXGXGXGXGXGXGXGXGXGXGXGXGXGXGXGXGXGXGXGXGXGXGXGXGXGXGXGXGXGXGXGXGXGXGXGXGXGXGXGXGXGXGXGX"
};
