/* XPM */
static char *f525eb10f97f40dcc6ac6ab0b677af31FOkLuT4aE4iFsSS8[] = {
/* columns rows colors chars-per-pixel */
"64 64 28 1 ",
"  c None",
". c #4A221B",
"X c #552A22",
"o c #552F28",
"O c #4F312B",
"+ c #60372F",
"@ c #663931",
"# c #71423A",
"$ c #77473F",
"% c #7D4E46",
"& c #AA1212",
"* c #55A61D",
"= c #2159BC",
"- c #0076C9",
"; c #A43F85",
": c #B04D91",
"> c #B55095",
", c #B55396",
"< c #BB599C",
"1 c #CC4FA5",
"2 c #C650A1",
"3 c #C654A2",
"4 c #C158A0",
"5 c #CC5DA9",
"6 c #CC64AB",
"7 c #D260AE",
"8 c #D263AF",
"9 c #D771B7",
/* pixels */
"                                                                ",
"                                                                ",
"                                                                ",
"                                                                ",
"                                                                ",
"                                                                ",
"                                                                ",
"                                                                ",
"                                                                ",
"                                                                ",
"                                                                ",
"                                                                ",
"                                                                ",
"                                                                ",
"                                                                ",
"                                                                ",
"                                                                ",
"                                                                ",
"                                                                ",
"                                                                ",
"                           ;;::::;;::                           ",
"                        :::5775544475::;                        ",
"                      ;:557=4496*6965577::                      ",
"                    ::7746699-6<6999966755;:                    ",
"                   ;577469669774<67&666=7775:                   ",
"                  :5774696&114444441177766775:                  ",
"                  ;7774*61444ooXooo4441117477;                  ",
"                 :577744114Xo$#$##%Xo4414*7775:                 ",
"                 :77774414o$$%%##$$##o41777775;                 ",
"                .;2227=441o$#+@++@@$$X447>>>27:.                ",
"                X:>22774411oX+@@+@+oo477>>->27:X                ",
"                .:>4226&6>>44ooXXoo4447&>44424:.                ",
"                .@;>42669*66>>>>111>>><<64223:@.                ",
"                o@:>>446999666<>>4>>6<99=223>:@o                ",
"                X@$:3>446<=999&99999*9666>>>;$@X                ",
"                 o@%:;3>44<<<6666-696334>>::$oo                 ",
"                 o@o#%;:3>>34444644>>3>>;:%#@oO                 ",
"                  X@@$$#::;3>>>333>33:;;%%$@oo                  ",
"                  X@o@$#%%%;;:::;;:::%%%$$@@oo                  ",
"                   ooo@@#$$%%%%%%%%%%$$#@oo@X                   ",
"                    Xo@oo@@$##$$$##$$$@oo@oo                    ",
"                      Xo@@oo$@@##@oo@ooXXo                      ",
"                        ooXo@@oo@@o@@Xoo                        ",
"                           XoooXXoooX                           ",
"                                                                ",
"                                                                ",
"                                                                ",
"                                                                ",
"                                                                ",
"                                                                ",
"                                                                ",
"                                                                ",
"                                                                ",
"                                                                ",
"                                                                ",
"                                                                ",
"                                                                ",
"                                                                ",
"                                                                ",
"                                                                ",
"                                                                ",
"                                                                ",
"                                                                ",
"                                                                "
};
