/* XPM */
static char *result[] = {
/* columns rows colors chars-per-pixel */
"64 64 151 2 ",
"   c #1C1211",
".  c #291B0F",
"X  c #211614",
"o  c #2A1C11",
"O  c #2C1D1B",
"+  c #36241B",
"@  c #432C29",
"#  c #4D332E",
"$  c #5B3C2C",
"%  c #52362D",
"&  c #4F3633",
"*  c #543630",
"=  c #5C3C32",
"-  c #543E3C",
";  c #603F25",
":  c #613F33",
">  c #56413E",
",  c #764D2F",
"<  c #644231",
"1  c #694433",
"2  c #6B4D36",
"3  c #6A4739",
"4  c #734B37",
"5  c #794F32",
"6  c #754C39",
"7  c #784F3A",
"8  c #765534",
"9  c #7A5234",
"0  c #775835",
"q  c #775439",
"w  c #7D523A",
"e  c #785E3F",
"r  c #594440",
"t  c #654C44",
"y  c #745C40",
"u  c #7D5B49",
"i  c #695B59",
"p  c #786145",
"a  c None",
"s  c None",
"d  c None",
"f  c None",
"g  c None",
"h  c #83552F",
"j  c #8A5A34",
"k  c #80533B",
"l  c #835A3B",
"z  c #8A5A3D",
"x  c #815D33",
"c  c #905D3F",
"v  c #87643D",
"b  c #8F633F",
"n  c #9A6435",
"m  c #996C39",
"M  c #A06735",
"N  c #A46A35",
"B  c #A16E3A",
"V  c #AF7137",
"C  c #A4723B",
"Z  c #A9743B",
"A  c #B77839",
"S  c #BB7D3C",
"D  c #8B5B40",
"F  c #905F41",
"G  c #85614D",
"H  c #89634D",
"J  c #956244",
"K  c #9A6543",
"L  c #9C6A43",
"P  c #94674B",
"I  c #94684D",
"U  c #9E6948",
"Y  c #987C47",
"T  c #8E6750",
"R  c #8E6852",
"E  c #866958",
"W  c #8F705F",
"Q  c #90715F",
"!  c #A26B46",
"~  c #A46C48",
"^  c #A37046",
"/  c #AA7642",
"(  c #AB7B46",
")  c #AB724D",
"_  c #A27A45",
"`  c #B2764E",
"'  c #B5794E",
"]  c #B87A4F",
"[  c #B77A50",
"{  c #BA7C51",
"}  c #876E60",
"|  c #8F7160",
" . c None",
".. c None",
"X. c None",
"o. c None",
"O. c None",
"+. c #B28733",
"@. c #B28834",
"#. c #BE823E",
"$. c #C0843F",
"%. c #CD9A3D",
"&. c #D5A636",
"*. c #DEAB39",
"=. c #FFCF3E",
"-. c #AE8244",
";. c #BA8A40",
":. c #B48B49",
">. c #BA8B4A",
",. c #BD924B",
"<. c #96867D",
"1. c #98877E",
"2. c #C38C43",
"3. c #C99346",
"4. c #C3964D",
"5. c #CE9C4B",
"6. c #D09E4C",
"7. c #C08053",
"8. c #CFA24F",
"9. c #D2AB45",
"0. c #D2A14D",
"q. c #DDB74A",
"w. c #D4A650",
"e. c #D6A851",
"r. c #D8AA52",
"t. c #E5B947",
"y. c #E7BB49",
"u. c #D4BC65",
"i. c #FED34B",
"p. c #FFDD5D",
"a. c #DFCD76",
"s. c #D4C375",
"d. c #F7D867",
"f. c #F5DF76",
"g. c #FFE569",
"h. c #FFE776",
"j. c #FFE977",
"k. c #FFED7D",
"l. c None",
"z. c None",
"x. c None",
"c. c None",
"v. c None",
"b. c None",
"n. c None",
"m. c None",
"M. c None",
"N. c None",
"B. c #FFF185",
"V. c #FFF28B",
"C. c None",
/* pixels */
"m.m.m.m.m.m.m.m.n.m.m.m.m.N.N.n.l.f G z z z z z z z z z z z z D z z z z z z z z z z z z z H f l.b.M.M.M.m.m.m.m.m.m.m.m.m.m.m.m.",
"m.m.m.m.m.m.m.m.m.m.m.m.n.c.c.c...} I K K K K K K K K L K K L K K K K K K K K L K K K K K I W X.1.c.v.b.m.N.m.m.m.m.m.m.m.m.m.m.",
"m.m.m.m.m.m.m.m.m.m.m.n.z...W H T I ` { { { { { { { { { { { { { { { { [ { { { { { { { { ] ) I H R Q ..z.n.m.m.m.m.n.m.m.m.m.n.m.",
"m.m.m.m.m.m.m.m.m.m.n.z...W P K K ! ` [ ) ) ) ) ) ) ) ) ~ ) ) ) ) ) ) ) ) ) ) ) ) ) ) ) ] ' ~ K K I } ..z.n.m.m.m.m.m.m.m.m.m.m.",
"n.m.m.m.m.n.m.m.m.b.z...E P ) { { [ ~ D 6 1 1 1 3 3 1 3 3 3 1 3 3 2 3 3 3 3 3 3 1 3 3 6 D U [ { ] ) P E X.z.n.M.m.m.m.m.m.m.m.m.",
"m.m.m.m.m.m.m.m.n.z...W P ! ` { ` U D 2 1 < < < < : : < < < < < : = < < < < < < < : < 1 6 D U ` ] ' ! P E ..z.b.n.m.m.m.m.m.m.m.",
"m.m.m.m.m.m.m.n.z...E P ) ' ~ J 6 1 = 1 j n n n n n n n n n n n n n n n n n n n n n n j 1 = 1 6 J ~ ' ` I E ..z.n.N.m.m.m.m.m.m.",
"m.m.m.m.m.m.n.z...} P ! ' ) z 4 1 < < 5 N S #.$.#.#.#.#.$.$.#.$.$.$.#.#.#.#.#.#.$.#.A N 8 < < 1 4 z ) ' ~ P } ..z.n.m.m.m.m.m.n.",
"m.m.m.m.m.v.z...E P ) ] ~ D 1 1 j n n M V S 3.6.5.5.5.5.6.6.6.6.6.6.6.6.5.5.5.8.5.3.S V M n n j 1 1 D ~ ' ) P E X.z.n.m.m.m.m.m.",
"m.m.m.m.m.v.O.} P ! ' ) z 4 1 5 M A #.#.] 2.0.r.r.r.r.w.5.4.4.4.4.4.4.5.e.r.r.r.r.0.2.#.#.#.A N 5 1 4 D ) ' ! I W O.n.m.m.m.m.m.",
"m.m.m.m.m.c.W P ) ' ~ D 1 1 j N V ;.3.5.6.6.0.e.r.r.r.5.( L L ! L L L ( 5.r.r.r.e.w.5.5.5.3.S V N j 1 1 D ~ [ ) P | c.m.m.m.m.m.",
"m.m.m.m.n.l.T m ] { F 4 1 5 N A S 2.5.r.r.r.r.0.5.4.4.>.^ K J J K J K ! >.4.4.4.w.r.e.e.e.0.2.S A N 5 1 4 F { { n R l.n.n.m.m.m.",
"m.m.m.n.z...G K { ` 6 1 j N V S 3.8.w.e.e.e.e.5.( L L ^ ' { { [ ] { { ` ^ m L ( 5.r.r.e.r.w.8.3.S V N j 1 6 ` { J T X.z.n.m.m.m.",
"m.m.m.c...| P ! [ U < < n A #.2.8.r.w.r.e.e.4.>.^ J J L ) [ { [ { { { ` ! J J ~ :.5.w.r.e.e.e.0.2.S S n < < U ` ! I E O.c.m.m.m.",
"m.m.m.c.| I ) [ ~ D = < n #.3.8.w.e.w.r.r.5.( ^ ` { { ` U J J J J J K U ` { { ` U ( 5.r.e.e.e.w.6.3.S n : = z ~ ` ) U W c.m.m.m.",
"m.m.m.l.G D [ [ D 4 1 5 M #.5.e.r.e.r.w.5.:.! ! ) { { ` / Z / B C C C / ` { { ` U ^ :.4.w.e.e.r.e.6.;.N 5 1 4 F { { F H l.n.m.m.",
"m.n.z.f t 7 ` ` 7 1 j N V S 5.r.e.r.r.4.( ^ ` ` ! J J / %.*.*.*.*.*.*.%./ J J U ` ` ^ ( 5.r.e.e.e.6.] V N j 1 7 ` ` 6 t f z.b.m.",
"m.n.l.s - 3 U ! 1 : n S S 2.6.w.e.w.5.>.^ U ` ' Z C C ;.y.i.i.i.i.i.i.y.;.C C / ' ` L ! :.5.0.e.e.6.$.S S n < 1 U U < r s l.v.M.",
"m.c.l.s > : D D : 1 c #.3.6.w.r.e.5.( ! ` ) ~ / %.*.*.t.d.j.j.j.h.h.h.d.t.*.*.%./ ~ ) ` ^ ( 5.e.r.9.0.3.S n < : D z = r s l.v.M.",
"m.n.l.s r = 7 7 : ; M #.6.r.r.r.r.,.J l ) ) D m *.=.i.p.k.V.V.V.V.V.V.k.p.i.=.*.m D ) ) D J ,.r.r.e.r.0.#.n < = w w = r s l.v.m.",
"m.n.l.s r = 7 k : ; M $.6.r.e.r.r.:.q 1 z z 1 x &.i.g.B.B.V.V.V.V.V.V.B.k.g.i.&.0 1 D D 1 q :.r.r.w.e.6.$.n < = w w : r s l.b.m.",
"m.n.l.s r : 7 k : : n #.6.e.r.r.r.,.w 1 4 6 < 9 @.9.u.a.f.k.V.V.V.B.B.f.a.u.9.@.9 < 4 6 < l ,.r.e.r.w.6.$.n < = w k = r s l.b.m.",
"m.n.l.s > $ k k : : M #.6.9.e.e.r.5.Z j 1 < 6 w 9 0 e Y q.p.k.V.V.h.p.q.Y e q 9 w 6 < < j Z 5.e.e.e.r.6.$.n ; = w w = > s l.v.m.",
"m.n.l.s r : k 7 ; < c #.6.w.e.e.e.5.2.Z 9 1 6 6 : * * 8 +.9.u.s.s.u.9.+.8 = * < 6 7 1 9 Z 2.5.r.e.e.r.6.$.n 1 = w w = r s l.v.M.",
"m.n.l.a > : k k = 1 n $.6.e.r.e.e.w.0.3.Z j 1 : 6 7 k 7 9 0 e y p y 9 9 9 w w 6 < 1 j Z 2.0.0.r.e.e.w.5.$.n : = w w : > s l.n.m.",
"m.n.l.a > : k 7 = : n $.5.e.e.e.e.e.e.8.2.Z 9 1 6 k k 7 : = = $ * = = : 6 w w 6 1 9 Z 3.0.e.e.e.e.e.e.6.#.n 1 = w w : r s l.n.m.",
"m.n.l.a > : k 7 = 1 n #.5.r.e.e.w.e.e.w.0.2.C j 1 = = : 6 w w w w 7 w 6 < = = 1 j Z 3.0.0.e.e.e.e.e.e.6.$.n 1 = w w $ r a l.v.m.",
"m.n.l.a - = k k = ; n $.5.r.e.e.e.e.e.r.r.0.2.Z l 1 1 1 6 w w w w w w 7 1 < 3 l Z $.0.r.r.r.e.e.r.r.w.5.#.n < = w w = > s l.n.m.",
"m.n.l.a r : k 7 = : n #.5.w.e.e.e.e.e.e.e.0.0.5.,.-.M j 1 = = = = = = 1 j C -.,.3.0.0.e.0.e.e.e.e.r.e.5.#.n : $ 7 k : r s l.n.m.",
"m.n.l.a - = k k = 1 n $.6.e.r.e.e.e.e.w.e.r.e.r.e.0.%.Z l 2 2 2 2 2 2 x Z 2.0.r.r.e.e.e.r.e.e.e.e.e.e.6.#.n < : k k $ r s l.n.m.",
"m.v.l.a r : 7 7 = 1 n $.5.r.e.e.e.e.e.e.e.e.e.e.e.e.0.5.>.:.:.:.:.:.:.>.5.6.w.r.e.e.e.e.e.e.e.e.e.e.e.6.$.n : = k 7 = > a l.v.m.",
"m.n.l.a r : k k = : n $.6.w.e.e.w.e.e.e.e.e.e.e.e.e.e.e.r.r.r.r.r.r.r.r.e.r.e.e.e.e.e.e.e.r.r.e.e.r.e.5.$.n 1 = k k = r a l.n.m.",
"m.n.l.s r $ k w = < n #.6.r.r.9.w.e.e.e.e.0.e.e.e.e.e.e.r.e.e.e.r.r.r.r.e.e.w.r.e.w.r.e.r.r.e.e.e.e.e.0.#.n < = w k $ r d l.n.m.",
"m.n.l.s r : 7 k = < n $.3.e.r.e.e.e.e.e.e.e.e.e.e.e.e.e.e.e.e.e.w.r.w.r.w.r.r.w.e.e.r.8.,.:.:.,.8.e.9.0.$.n < $ w w : r a l.n.m.",
"m.n.l.s r : k 7 = < n #.0.r.e.e.e.e.e.e.e.e.e.e.e.e.w.e.e.e.e.e.r.w.r.w.w.r.w.r.e.r.r.,.v 3 2 G 4.r.r.5.$.n < = w w = r a l.v.m.",
"m.n.l.s > = w w = < n #.6.r.e.e.e.e.e.e.e.e.w.e.e.w.e.e.e.e.e.e.w.r.w.r.e.w.r.w.r.8.4._ q 1 3 q _ ,.0.6.$.n < = w w = > s l.n.m.",
"m.v.l.a r : k k = < n $.6.e.e.e.e.e.e.e.w.e.e.e.e.e.e.w.e.e.e.e.e.e.w.e.e.e.w.r.r.,.v q U ) ) U e v ,.6.$.n < = k 7 : r s l.n.m.",
"m.n.l.s > = k 7 = < n $.6.e.e.e.e.w.e.e.e.e.e.e.e.e.e.e.e.e.e.w.e.e.e.e.e.e.e.r.e.:.2 < U 7.{ K < 3 :.0.$.n < = k k = r s l.n.m.",
"m.v.l.s r = w w = < n #.5.e.e.e.e.e.e.w.e.e.e.e.e.e.e.e.e.w.e.e.e.w.e.e.w.r.w.r.r.:.2 = z L ! z = 2 :.6.$.n < = w 7 = > s l.v.m.",
"m.n.l.s r $ w w = < n $.0.0.8.8.0.e.e.e.e.e.w.e.e.w.e.e.e.e.e.w.e.e.e.w.r.w.e.r.r.>.l 1 6 7 7 4 1 l ,.0.$.n < = k k = r s l.v.m.",
"m.n.l.s r : 7 k : < n $.6.6.#.2.5.e.e.e.e.e.e.e.e.e.e.e.e.e.e.e.e.e.e.w.e.e.e.r.e.4.Z j 1 = = 1 j Z 3.6.$.n : = w k = > s l.n.m.",
"m.v.l.s r = k 7 > < n $.6.5.#.S 5.r.e.e.e.e.0.e.e.e.e.e.e.e.e.e.e.e.e.e.e.e.w.e.r.8.2.Z 5 : : 5 Z 3.0.6.$.n 1 : k 7 : r s l.n.m.",
"m.v.l.s - = k k = < n #.6.5.S #.5.e.e.e.e.e.e.e.e.0.e.e.e.e.w.e.e.e.e.e.w.e.e.e.e.w.0.3.Z n n C 2.0.w.6.#.n 1 $ w 7 : r a l.n.m.",
"m.n.l.a > : k 7 = < n $.6.5.#.S 5.e.e.e.e.e.e.e.e.e.e.e.e.e.e.e.e.w.e.e.e.e.e.e.e.e.e.6.2.S #.2.0.r.w.5.$.n : = w k $ r s l.n.m.",
"m.n.l.s r : k 7 = < n #.5.5.#.S 5.e.e.e.e.e.e.e.e.e.e.w.e.e.0.e.e.e.e.e.e.w.e.w.e.e.e.w.0.5.5.0.0.e.r.5.#.n ; = k k : r s l.n.m.",
"m.n.l.s r : k k = < n $.5.5.#.#.3.e.e.e.e.e.e.e.e.w.e.e.e.e.e.e.w.e.e.e.e.e.e.e.e.e.w.e.e.r.r.e.r.r.e.6.$.n 1 = 7 7 : > a l.n.m.",
"m.n.l.s - = 7 k = < n #.5.5.S S 8.e.e.e.e.e.e.w.e.e.e.e.e.e.e.e.e.e.e.e.e.e.w.e.e.e.e.e.e.r.e.e.e.e.e.6.$.n 1 = k k : - s l.n.m.",
"n.z.l.d > : 7 k = < n #.6.8.2.2.8.e.e.e.e.e.e.e.e.e.e.e.e.e.e.e.e.e.e.w.e.e.e.e.e.w.e.e.e.0.0.5.0.e.r.5.$.n : = 7 k : > s l.z.n.",
"l.o.o.d r = w w = < n $.5.0.0.0.0.r.e.r.e.e.e.e.e.w.e.e.e.e.e.e.w.e.e.e.e.e.e.w.e.e.w.r.r.3.2.2.0.r.r.5.#.n < = w k = r d o.l.l.",
"..o.o.d r = w w = < n #.6.e.e.e.r.0.6.5.w.w.e.e.e.e.e.e.e.e.e.e.e.e.e.e.e.e.e.e.e.e.e.w.r.6.;.2.5.r.r.5.$.n < $ w w : r d o.o.g ",
"o.o.o.d r = w w = < n $.6.e.r.e.e.6.;.2.6.r.e.e.e.e.e.e.e.e.e.e.e.e.e.w.w.e.e.e.e.w.w.r.e.w.6.5.0.e.e.5.$.n < = w w = > d o.g g ",
" . .d i > = w w = < n $.5.e.r.e.w.6.2.2.5.e.e.e.e.e.w.e.0.e.e.e.e.e.e.e.e.e.e.e.e.e.r.w.e.e.r.w.e.e.e.8.$.n < = w w : - i d f  .",
"H u t - & = w w : 1 c #.6.r.e.r.e.w.5.8.0.e.w.e.e.e.e.e.e.e.e.e.e.e.e.e.e.e.e.e.e.e.w.e.e.e.e.r.e.e.e.6.$.n < = w k > & - t u H ",
"K c 7 < * = w w = ; M #.5.w.6.6.w.e.r.e.e.e.e.e.e.w.e.e.w.e.e.e.w.e.e.e.e.e.e.w.e.e.e.e.w.e.e.e.e.e.e.5.#.n < = w k : & < 7 c K ",
"] ] ` J 3 = w w = : n 2.5.5.2.2.5.e.e.e.e.e.e.e.e.e.e.e.e.e.e.e.r.0.w.e.w.e.e.e.e.w.e.e.e.e.e.e.e.e.e.8.#.n < = w w = < J ` ] ] ",
"{ 7.{ ! 3 = w w $ 1 n ;.5.5.#.S 5.e.0.6.w.r.e.e.e.e.e.e.e.e.e.e.r.r.e.r.e.r.e.e.r.e.r.e.e.w.6.6.e.e.r.5.$.n < $ w w = 1 ~ 7.{ { ",
"K ! K D : = 7 u = : n $.6.6.$.S 6.6.2.2.6.e.e.r.e.e.e.e.e.w.e.e.e.e.r.r.r.r.r.r.r.r.e.r.e.6.2.2.0.r.r.6.$.n < = w w = > z ! K K ",
"7 k 7 4 $ : k w : 1 n $.3.3.S S 3.3.S S 3.6.6.5.5.5.6.6.6.6.6.6.5.6.3.6.6.3.5.6.0.3.6.5.5.3.S S 3.6.6.3.$.n < = w w = = 4 w k w ",
": : = * * = 7 w = 1 n S #.$.A A $.S A A S #.#.#.#.#.#.#.S $.$.$.#.#.#.#.#.#.;.#.#.#.#.#.;.S A A S #.$.S A n < = w k = # * = $ : ",
"@ @ @ @ # : l w = : j N N N N N N N N N N N N N N N N N N N N N N N N N N N N N N N N N N N N N N N N N V j < = w k < # @ @ @ @ ",
"      O @ < w w $ $ , h h h h h h h h h h h h h h h h h h h h h h h h h h h h h h h h h h h h h h h h h h , $ = l w : @ O     X ",
"C.C.C.X @ = 6 4 $ % $ < ; ; ; ; ; ; ; ; ; ; ; ; ; ; ; ; ; ; ; ; ; ; ; ; ; ; ; ; ; ; ; ; ; ; < ; ; ; ; < ; $ % = 4 4 = @ X C.C.C.",
"C.C.C.C.# * = = * # + . o o . . o o o o o o o o o o o o o o o o o o o o o o o o o o o o . . o o o o . . . + # # = * * # C.C.C.C.",
"C.C.C.C.# # # # # @   C.C.C.C.C.C.C.C.C.C.C.C.C.C.C.C.C.C.C.C.C.C.C.C.C.C.C.C.C.C.C.C.C.C.C.C.C.C.C.C.C.C.  @ # & & * # C.C.C.C."
};
