/* XPM */
static char *adc7dd558d3c466cadb9bdffdc4b757dICl56rAf2n1o0PPP[] = {
/* columns rows colors chars-per-pixel */
"64 64 134 2 ",
"   c #453F29",
".  c #354226",
"X  c #394527",
"o  c #3B4826",
"O  c #3A4528",
"+  c #3F4B2A",
"@  c #46452A",
"#  c #48432A",
"$  c #424D2B",
"%  c #4F4B2E",
"&  c #514C2F",
"*  c #475326",
"=  c #4B5627",
"-  c #455029",
";  c #4A532E",
":  c #4E592E",
">  c #535F2B",
",  c #524E30",
"<  c #5C4A30",
"1  c #4D5630",
"2  c #4C5830",
"3  c #535F33",
"4  c #644D32",
"5  c #655234",
"6  c #695235",
"7  c #765237",
"8  c #715B39",
"9  c #57622A",
"0  c #5C682F",
"q  c #556234",
"w  c #596535",
"e  c #5E6934",
"r  c #646F32",
"t  c #626C38",
"y  c #667133",
"u  c #687332",
"i  c #6D7836",
"p  c #647239",
"a  c #69763C",
"s  c #6C7A3D",
"d  c #707B35",
"f  c #737F39",
"g  c #825B3C",
"h  c #895E3E",
"j  c #8B603F",
"k  c #876741",
"l  c #8A6441",
"z  c #896842",
"x  c #9F6745",
"c  c #976B45",
"v  c #9A6B46",
"b  c #A96E49",
"n  c #A4734A",
"m  c #AA754C",
"M  c #AD784D",
"N  c #B4794F",
"B  c #BD7E52",
"V  c #C07F53",
"C  c #7F8B2F",
"Z  c #75823A",
"A  c #78853A",
"S  c #7D8B3D",
"D  c #738240",
"F  c #788742",
"G  c #7F8E44",
"H  c #838E31",
"J  c #808E3E",
"K  c #869332",
"L  c #8A9633",
"P  c #8F9B36",
"I  c #83903F",
"U  c #929D35",
"Y  c #94A037",
"T  c #9CA734",
"R  c #99A433",
"E  c #95A139",
"W  c #96A238",
"Q  c #96A238",
"!  c #9BA83B",
"~  c #9CA93B",
"^  c #9DA93B",
"/  c #9DAA3B",
"(  c #9EAA3B",
")  c #9EAB3B",
"_  c #9DA93B",
"`  c #A5B137",
"'  c #A5B137",
"]  c #A6B238",
"[  c #A7B338",
"{  c #A6B238",
"}  c #808F44",
"|  c #808F45",
" . c #808F44",
".. c #839243",
"X. c #879541",
"o. c #839144",
"O. c #839244",
"+. c #849344",
"@. c #839243",
"#. c #889741",
"$. c #899741",
"%. c #889742",
"&. c #899741",
"*. c #899841",
"=. c #8A9841",
"-. c #899842",
";. c #8A9842",
":. c #8A9942",
">. c #8B9942",
",. c #8C9A40",
"<. c #8A9841",
"1. c #BF8153",
"2. c #BF8154",
"3. c #BF8254",
"4. c #BF8154",
"5. c #C28154",
"6. c #C08254",
"7. c #C48355",
"8. c #C58455",
"9. c #C68456",
"0. c #C68556",
"q. c #C78556",
"w. c #C78656",
"e. c #C78657",
"r. c #C68556",
"t. c #C88657",
"y. c #C98657",
"u. c #C88757",
"i. c #C98757",
"p. c #CA8757",
"a. c #C98657",
"s. c #CB8858",
"d. c #CC8858",
"f. c #CC8858",
/* pixels */
"0.0.0.0.0.0.0.0.0.0.0.0.0.0.0.0.0.0.0.0.0.0.0.0.0.0.0.0.0.0.0.0.0.0.0.0.0.0.0.0.0.0.0.0.0.0.0.0.0.0.0.0.0.0.0.0.0.0.0.0.0.0.0.0.",
"0.0.0.0.0.0.0.0.0.0.0.0.0.0.0.0.0.0.0.0.0.0.0.0.0.0.0.0.0.0.0.0.0.0.0.0.0.0.0.0.0.0.0.0.0.0.0.0.0.0.0.0.0.0.0.0.0.0.0.0.0.0.0.0.",
"0.0.0.0.0.0.0.0.0.0.0.0.0.0.0.0.0.0.0.0.0.0.0.0.0.0.0.0.0.0.0.0.0.0.0.0.0.0.0.0.0.0.0.0.0.0.0.0.0.0.0.0.0.0.0.0.0.0.0.0.0.0.0.0.",
"0.0.0.0.0.0.0.0.0.0.0.0.0.0.0.0.0.0.0.0.0.0.0.0.0.0.0.0.0.0.0.0.0.0.0.0.0.0.0.0.0.0.0.0.0.0.0.0.0.0.0.0.0.0.0.0.0.0.0.0.0.0.0.0.",
"0.0.0.0.0.0.0.0.0.0.0.0.0.0.0.0.0.0.0.0.0.0.0.0.0.0.0.0.0.0.0.0.0.0.0.0.0.0.0.0.0.0.0.0.0.0.0.0.0.0.0.0.0.0.0.0.0.0.0.0.0.0.0.0.",
"0.0.0.0.0.0.0.0.0.0.0.0.0.0.0.0.0.0.0.0.0.0.0.0.0.0.0.0.y.y.y.y.0.0.0.0.0.0.0.0.0.0.0.0.0.0.0.0.0.0.0.0.0.0.0.0.0.0.0.0.0.0.0.0.",
"0.0.0.0.0.0.0.0.0.0.0.0.0.0.0.0.0.0.0.0.0.0.0.0.0.0.0.y.y.y.y.y.0.0.0.0.0.0.0.0.0.0.0.0.0.0.0.0.0.0.0.0.0.0.0.0.0.0.0.0.0.0.0.0.",
"0.0.0.0.0.0.0.0.0.0.0.0.0.0.0.0.0.0.y.y.0.0.0.0.y.0.B N m n n m 2.y.y.0.0.0.y.y.y.y.0.0.0.0.0.0.0.0.0.0.0.0.0.0.0.0.0.0.0.0.0.0.",
"0.0.0.0.0.0.0.0.0.0.0.0.0.0.0.0.0.y.y.y.0.0.0.y.y.V b h 5 & & 8 M d.y.0.0.y.y.y.y.y.y.0.0.0.0.0.0.0.0.0.0.0.0.0.0.0.0.0.0.0.0.0.",
"0.0.0.0.0.0.0.0.0.0.0.0.0.0.0.7.B N m m 2.0.B N m c g 4 @ . . & k m N B B N m n n m N B 0.y.0.0.y.y.0.0.0.0.0.0.0.0.0.0.0.0.0.0.",
"0.0.0.0.0.0.0.0.0.0.0.0.0.0.y.B b h 5 8 M 6.b h 5 & # @ ; 2 2 ; & 5 j x x j 5 & & 5 h b V y.y.y.y.y.0.0.0.0.0.0.0.0.0.0.0.0.0.0.",
"0.0.0.0.0.0.0.0.0.0.0.0.y.0.B m g 4 @ & k v g 4 @ X + : r i p q $ @ 4 7 7 4 @ . . @ 4 g c m N N m m 2.y.0.0.0.0.0.0.0.0.0.0.0.0.",
"0.0.0.0.0.0.0.0.0.0.0.y.y.V b g < @ ; 1 , & # @ ; q p A U U J s q ; @   # @ ; 2 2 ; @ # & 6 l j 5 8 M s.y.0.0.0.0.0.0.0.0.0.0.0.",
"0.0.0.0.0.0.0.0.0.0.y.6.M c g 4 @ $ w e > = - ; w a F =.^ ^ =.F a e > = - : r d d r : + X @ 4 4 @ & k M 6.y.0.0.0.0.0.0.0.0.0.0.",
"0.0.0.0.0.0.0.0.0.y.s.M 8 % # @ ; q s S L K Z s D F G ..$.$...G F S L K Z Z P T T P Z p q ; @ @ ; ; & 8 M y.y.0.0.0.0.0.0.0.0.0.",
"0.0.0.0.0.0.0.0.0.2.M k & . . $ w a F =.^ ^ =.} } } G G G G G G G =.^ ^ =.$.! ` ` ^ =.F a e > > e q X % c V 0.0.0.0.0.0.0.0.0.0.",
"0.0.0.0.0.0.0.y.y.m 8 & 1 2 2 q s F G ..=.=...} } G G G G G G G G ..$.$.o.o.$.,.,.$.o.G F S L L S p + # g b B 0.0.0.0.0.0.0.0.0.",
"0.0.0.0.0.0.0.y.y.m 5 @ ; q y f F } } G G G G G G G G G G G G G G G G G G G G G G G G G G =.^ ^ =.s ; @ 4 h N y.0.0.0.0.0.0.0.0.",
"0.0.0.0.0.0.0.0.y.N h 4 @ > H W X.G G G G G G G G G G G G G G G G G G G G G G G G G G G G ..=.=.+.D w ; @ 5 m y.y.0.0.0.0.0.0.0.",
"0.0.0.0.0.0.0.0.0.B b g # = L ^ =.G G G G G G G G G G G G G G G G G G G G G G G G G G G G G G G G F f e o & n s.y.0.0.0.0.0.0.0.",
"0.0.0.0.0.0.0.0.0.0.6.v & - Z =...G G G G G G G G G G G G G G G G G G G G G G G G G G G G G G G G X.W C * & n s.y.0.0.0.0.0.0.0.",
"0.0.0.0.0.0.0.0.0.2.M k , ; s } } G G G G G G G G G G G G G G G G G G G G G G G G G G G G G G G G ,.] U 9 , k M 1.0.0.0.0.0.0.0.",
"0.0.0.0.0.0.0.y.y.M 8 & 1 w D } } G G G G G G G G G G G G G G G G G G G G G G G G G G G G G G G G ,.] R u 1 % 8 m y.y.0.0.0.0.0.",
"0.0.0.0.0.0.0.y.s.n & X 0 Z F G G G G G G G G G G G G G G G G G G G G G G G G G G G G G G G G G G $.^ U y ; @ 5 m y.y.0.0.0.0.0.",
"0.0.0.0.0.0.0.y.d.n & * C W X.G G G G G G G G G G G G G G G G G G G G G G G G G G G G G G G G G G o.=.A : @ 4 h N y.0.0.0.0.0.0.",
"0.0.0.0.0.0.0.1.M k , > L ^ =.G G G G G G G G G G G G G G G G G G G G G G G G G G G G G G G G G G G F p + # g b B 0.0.0.0.0.0.0.",
"0.0.0.0.0.y.y.m 8 & 1 e S =...G G G G G G G G G G G G G G G G G G G G G G G G G G G G G G G G G } F a q X & c V 0.0.0.0.0.0.0.0.",
"0.0.0.0.0.y.y.m 5 @ ; w D } } G G G G G G G G G G G G G G G G G G G G G G G G G G G G G G G G } } Z w ; @ 5 m y.y.0.0.0.0.0.0.0.",
"0.0.0.0.0.0.y.N h 4 @ ; s o.} G G G G G G G G G G G G G G G G G G G G G G G G G G G G G G G G } o.s ; @ 4 h N y.0.0.0.0.0.0.0.0.",
"0.0.0.0.0.0.0.B b g # + p F G G G G G G G G G G G G G G G G G G G G G G G G G G G G G G G G G } o.s $ # g b B 0.0.0.0.0.0.0.0.0.",
"0.0.0.0.0.0.0.0.V c & X q a F } G G G G G G G G G G G G G G G G G G G G G G G G G G G G G G G } o.s $ & v 6.0.0.0.0.0.0.0.0.0.0.",
"0.0.0.0.0.0.0.y.y.m 5 @ ; w D } } G G G G G G G G G G G G G G G G G G G G G G G G G G G G G G } } s ; , z M 2.0.0.0.0.0.0.0.0.0.",
"0.0.0.0.0.0.0.0.y.N h 4 @ ; s } } G G G G G G G G G G G G G G G G G G G G G G G G G G G G G G G G D w 1 & 8 M y.y.0.0.0.0.0.0.0.",
"0.0.0.0.0.0.0.0.0.B b g # - Z =...G G G G G G G G G G G G G G G G G G G G G G G G G G G G G G ..$.J p 2 . & n y.y.0.0.0.0.0.0.0.",
"0.0.0.0.0.0.0.0.0.0.6.v & = K ^ =.G G G G G G G G G G G G G G G G G G G G G G G G G G G G G G $.^ U i 2 . & n y.y.0.0.0.0.0.0.0.",
"0.0.0.0.0.0.0.0.0.2.M k , > L ^ $.G G G G G G G G G G G G G G G G G G G G G G G G G G G G G G $.^ U r ; @ 5 m y.y.0.0.0.0.0.0.0.",
"0.0.0.0.0.0.0.y.y.m 8 & 1 e S =...G G G G G G G G G G G G G G G G G G G G G G G G G G G G G G ..=.Z : @ 4 j N y.0.0.0.0.0.0.0.0.",
"0.0.0.0.0.0.0.y.y.m 5 @ ; w D G G G G G G G G G G G G G G G G G G G G G G G G G G G G G G G G } } s $ # 7 x B 0.0.0.0.0.0.0.0.0.",
"0.0.0.0.0.0.0.0.y.N h 4 @ ; s } } G G G G G G G G G G G G G G G G G G G G G G G G G G G G G G } } s $ # 7 x B 0.0.0.0.0.0.0.0.0.",
"0.0.0.0.0.0.0.0.0.B b g # $ s } } G G G G G G G G G G G G G G G G G G G G G G G G G G G G G G } o.s ; @ 4 j N y.0.0.0.0.0.0.0.0.",
"0.0.0.0.0.0.0.0.0.0.6.v & $ s } } G G G G G G G G G G G G G G G G G G G G G G G G G G G G G G } } Z w ; @ 5 m y.y.0.0.0.0.0.0.0.",
"0.0.0.0.0.0.0.0.0.2.M k , : Z =...G G G G G G G G G G G G G G G G G G G G G G G G G G G G G G G G F Z e o & n s.y.0.0.0.0.0.0.0.",
"0.0.0.0.0.0.0.y.y.M 8 , 1 r P ^ $.G G G G G G G G G G G G G G G G G G G G G G G G G G G G G G G G X.W C * & n d.y.0.0.0.0.0.0.0.",
"0.0.0.0.0.0.0.y.y.n & . 2 i U ^ $.G G G G G G G G G G G G G G G G G G G G G G G G G G G G G G G G =.^ L > , k M 1.0.0.0.0.0.0.0.",
"0.0.0.0.0.0.0.y.y.n & . 2 p J =...G G G G G G G G G G G G G G G G G G G G G G G G G G G G G G G G ..=.S e 1 & 8 m y.y.0.0.0.0.0.",
"0.0.0.0.0.0.0.y.y.m 5 @ ; w s F G G G G G G G G G G G G G G G G G G G G G G G G G G G G G G G G G G F s w ; @ 5 m y.y.0.0.0.0.0.",
"0.0.0.0.0.0.0.0.y.N h 4 @ $ q a F G G G G G } } G G G G G G G } G G G G G G G G } } G G G G G G G F a q $ @ 4 h N y.0.0.0.0.0.0.",
"0.0.0.0.0.0.0.0.0.B b g < @ ; e S =...G G G F F G } } ..$.X.F F G G G ..$.$...G F F G ..$.,.,.=.+.D w ; @ < g b B 0.0.0.0.0.0.0.",
"0.0.0.0.0.0.0.0.0.7.B m h 4 @ > L ^ $.G } F a a F o.} =.^ Y f a F } G $.^ ^ =.F a a F =.^ ` ] / =.s ; @ 4 g m B 7.0.0.0.0.0.0.0.",
"0.0.0.0.0.0.0.0.0.y.y.N l 4 @ > L ^ =.G F s q 3 p s D I ! U r q s F G X.W U A p 3 q s J U R U L S p + # g b B y.0.0.0.0.0.0.0.0.",
"0.0.0.0.0.0.0.0.0.y.y.m 5 @ ; e S =.+.F a w $ O $ ; w s @.A : $ q s F F Z r : + O $ w p i y 9 > e q X % c V 0.0.0.0.0.0.0.0.0.0.",
"0.0.0.0.0.0.0.0.0.y.y.m 5 @ ; w s D s p q ; @ # # @ ; q p t % @ ; w s s q ; @ # # @ ; 2 2 ; @ @ ; ; & 8 M y.y.0.0.0.0.0.0.0.0.0.",
"0.0.0.0.0.0.0.0.0.0.y.N h 4 @ $ w w ; + X @ 4 7 7 4 @ X + % 6 4 @ $ w w $ @ 4 7 7 4 @ . . @ 4 4 @ & k M 6.y.0.0.0.0.0.0.0.0.0.0.",
"0.0.0.0.0.0.0.0.0.0.0.B b h 5 & 1 ; @ # & 5 j x x j 5 & & 5 l h < @ ; 1 & 5 j x x j 5 & & 6 l j 5 8 M s.y.0.0.0.0.0.0.0.0.0.0.0.",
"0.0.0.0.0.0.0.0.0.0.0.6.B N m k & @ 4 g c m N B B N m n n m N m g 4 @ & k m N B B N m n n m N N m m 2.y.0.0.0.0.0.0.0.0.0.0.0.0.",
"0.0.0.0.0.0.0.0.0.0.0.0.0.y.d.M 8 5 h b V y.y.0.0.y.y.y.y.y.y.B b h 5 8 M d.y.0.0.y.y.y.y.y.y.y.y.y.0.0.0.0.0.0.0.0.0.0.0.0.0.0.",
"0.0.0.0.0.0.0.0.0.0.0.0.0.y.y.1.m m N B 0.y.0.0.0.0.y.y.y.y.0.7.B N m m 1.y.y.0.0.0.y.y.y.y.0.0.y.y.0.0.0.0.0.0.0.0.0.0.0.0.0.0.",
"0.0.0.0.0.0.0.0.0.0.0.0.0.0.0.0.y.y.y.0.0.0.0.0.0.0.0.0.0.0.0.0.0.y.y.y.0.0.0.0.0.0.0.0.0.0.0.0.0.0.0.0.0.0.0.0.0.0.0.0.0.0.0.0.",
"0.0.0.0.0.0.0.0.0.0.0.0.0.0.0.0.y.y.0.0.0.0.0.0.0.0.0.0.0.0.0.0.0.0.y.y.0.0.0.0.0.0.0.0.0.0.0.0.0.0.0.0.0.0.0.0.0.0.0.0.0.0.0.0.",
"0.0.0.0.0.0.0.0.0.0.0.0.0.0.0.0.0.0.0.0.0.0.0.0.0.0.0.0.0.0.0.0.0.0.0.0.0.0.0.0.0.0.0.0.0.0.0.0.0.0.0.0.0.0.0.0.0.0.0.0.0.0.0.0.",
"0.0.0.0.0.0.0.0.0.0.0.0.0.0.0.0.0.0.0.0.0.0.0.0.0.0.0.0.0.0.0.0.0.0.0.0.0.0.0.0.0.0.0.0.0.0.0.0.0.0.0.0.0.0.0.0.0.0.0.0.0.0.0.0.",
"0.0.0.0.0.0.0.0.0.0.0.0.0.0.0.0.0.0.0.0.0.0.0.0.0.0.0.0.0.0.0.0.0.0.0.0.0.0.0.0.0.0.0.0.0.0.0.0.0.0.0.0.0.0.0.0.0.0.0.0.0.0.0.0.",
"0.0.0.0.0.0.0.0.0.0.0.0.0.0.0.0.0.0.0.0.0.0.0.0.0.0.0.0.0.0.0.0.0.0.0.0.0.0.0.0.0.0.0.0.0.0.0.0.0.0.0.0.0.0.0.0.0.0.0.0.0.0.0.0.",
"0.0.0.0.0.0.0.0.0.0.0.0.0.0.0.0.0.0.0.0.0.0.0.0.0.0.0.0.0.0.0.0.0.0.0.0.0.0.0.0.0.0.0.0.0.0.0.0.0.0.0.0.0.0.0.0.0.0.0.0.0.0.0.0."
};
